<?xml version="1.0" encoding="UTF-8" standalone="no"?>
<!-- Created with Inkscape (http://www.inkscape.org/) -->

<svg
   width="25.75mm"
   height="35mm"
   viewBox="0 0 25.75 35"
   version="1.1"
   id="svg5"
   inkscape:version="1.1.2 (b8e25be8, 2022-02-05)"
   sodipodi:docname="case.svg"
   xmlns:inkscape="http://www.inkscape.org/namespaces/inkscape"
   xmlns:sodipodi="http://sodipodi.sourceforge.net/DTD/sodipodi-0.dtd"
   xmlns="http://www.w3.org/2000/svg"
   xmlns:svg="http://www.w3.org/2000/svg">
  <sodipodi:namedview
     id="namedview7"
     pagecolor="#ffffff"
     bordercolor="#666666"
     borderopacity="1.0"
     inkscape:pageshadow="2"
     inkscape:pageopacity="0.0"
     inkscape:pagecheckerboard="0"
     inkscape:document-units="mm"
     showgrid="false"
     inkscape:zoom="3.9167199"
     inkscape:cx="70.33947"
     inkscape:cy="87.573278"
     inkscape:window-width="1920"
     inkscape:window-height="1058"
     inkscape:window-x="37"
     inkscape:window-y="96"
     inkscape:window-maximized="0"
     inkscape:current-layer="text1578"
     fit-margin-top="0"
     fit-margin-left="0"
     fit-margin-right="0"
     fit-margin-bottom="0" />
  <defs
     id="defs2" />
  <g
     inkscape:groupmode="layer"
     id="layer2"
     inkscape:label="PCB"
     style="display:none"
     sodipodi:insensitive="true">
    <g
       id="g1073"
       transform="translate(0,-0.0835)"
       style="display:inline">
      <g
         style="fill:#000000;fill-opacity:1;stroke:#000000;stroke-linecap:round;stroke-linejoin:round;stroke-opacity:1"
         id="g941" />
      <g
         style="fill:none;stroke:#c2c2c2;stroke-width:0.05;stroke-linecap:round;stroke-linejoin:round;stroke-opacity:1"
         id="g961">
        <path
           d="m 20.365,27.8035 h 1.82"
           id="path943" />
        <path
           d="m 20.365,28.7235 v -0.92"
           id="path945" />
        <path
           d="m 22.185,27.8035 v 0.92"
           id="path947" />
        <path
           d="m 22.185,28.7235 h -1.82"
           id="path949" />
        <path
           d="m 21.025,20.7135 v 2.6"
           id="path951" />
        <path
           d="m 21.025,23.3135 h 3"
           id="path953" />
        <path
           d="m 24.025,20.7135 h -3"
           id="path955" />
        <path
           d="m 24.025,23.3135 v -2.6"
           id="path957" />
        <path
           style="fill:none;stroke:#c2c2c2;stroke-width:0.12;stroke-linecap:round;stroke-linejoin:round;stroke-opacity:1"
           d="M 20.28,34.9635 H 5.08 v -6 h 15.2 z"
           id="path959" />
      </g>
      <g
         style="fill:none;stroke:#c2c2c2;stroke-width:0.05;stroke-linecap:round;stroke-linejoin:round;stroke-opacity:1"
         id="g1023">
        <path
           d="m 6.51,1.8035 v 26.92"
           id="path963" />
        <path
           d="M 6.51,28.7235 H 16.54"
           id="path965" />
        <path
           d="M 16.54,1.8035 H 6.51"
           id="path967" />
        <path
           d="M 16.54,28.7235 V 1.8035"
           id="path969" />
        <path
           d="m 18.115,25.3035 h 1.82"
           id="path971" />
        <path
           d="m 18.115,26.2235 v -0.92"
           id="path973" />
        <path
           d="m 19.935,25.3035 v 0.92"
           id="path975" />
        <path
           d="m 19.935,26.2235 h -1.82"
           id="path977" />
        <circle
           cx="21.525"
           cy="4.1085"
           r="3.25"
           id="circle979" />
        <path
           d="m 22.595,27.7935 h 1.86"
           id="path981" />
        <path
           d="m 22.595,28.7335 v -0.94"
           id="path983" />
        <path
           d="m 24.455,27.7935 v 0.94"
           id="path985" />
        <path
           d="m 24.455,28.7335 h -1.86"
           id="path987" />
        <path
           d="m 21.225,30.0585 v 2.5"
           id="path989" />
        <path
           d="m 21.225,30.0585 h 3.3"
           id="path991" />
        <path
           d="m 24.525,32.5585 h -3.3"
           id="path993" />
        <path
           d="m 24.525,32.5585 v -2.5"
           id="path995" />
        <path
           d="m 18.095,24.0435 h 1.86"
           id="path997" />
        <path
           d="m 18.095,24.9835 v -0.94"
           id="path999" />
        <path
           d="m 19.955,24.0435 v 0.94"
           id="path1001" />
        <path
           d="m 19.955,24.9835 h -1.86"
           id="path1003" />
        <path
           d="m 20.475,23.7135 h 3.6"
           id="path1005" />
        <path
           d="m 20.475,27.3135 v -3.6"
           id="path1007" />
        <path
           d="m 24.075,23.7135 v 3.6"
           id="path1009" />
        <path
           d="m 24.075,27.3135 h -3.6"
           id="path1011" />
        <path
           d="m 18.115,26.5535 h 1.82"
           id="path1013" />
        <path
           d="m 18.115,27.4735 v -0.92"
           id="path1015" />
        <path
           d="m 19.935,26.5535 v 0.92"
           id="path1017" />
        <path
           d="m 19.935,27.4735 h -1.82"
           id="path1019" />
        <path
           style="fill:none;stroke:#c2c200;stroke-width:0.05;stroke-linecap:round;stroke-linejoin:round;stroke-opacity:1"
           d="m 0.025,0.1085 h 25.75 v 35 H 0.025 Z"
           id="path1021" />
      </g>
    </g>
  </g>
  <g
     inkscape:label="Components"
     inkscape:groupmode="layer"
     id="layer1"
     style="display:inline"
     sodipodi:insensitive="true">
    <g
       id="g1633"
       transform="rotate(90,11.7,13.34)">
      <circle
         style="fill:#000000;fill-opacity:0.356195;fill-rule:evenodd;stroke-width:3.53398;stroke-linecap:square;stroke-linejoin:round;paint-order:markers fill stroke"
         id="path934"
         cx="13.5"
         cy="13.5"
         r="10" />
      <rect
         style="fill:#000000;fill-opacity:0.356195;fill-rule:evenodd;stroke-width:4.0734;stroke-linecap:square;stroke-linejoin:round;paint-order:markers fill stroke"
         id="rect1290"
         width="27"
         height="10"
         x="-1.7763568e-15"
         y="8.5"
         ry="0"
         rx="0" />
    </g>
    <circle
       style="fill:#000000;fill-opacity:0.356195;fill-rule:evenodd;stroke-width:0.666667;stroke-linecap:square;stroke-linejoin:round;paint-order:markers fill stroke"
       id="path1657"
       cx="21.5"
       cy="4"
       r="1.5" />
  </g>
  <g
     inkscape:groupmode="layer"
     id="layer3"
     inkscape:label="Bounds"
     style="display:inline"
     sodipodi:insensitive="true">
    <rect
       style="fill:#00e800;fill-opacity:0.470468;fill-rule:evenodd;stroke-width:1.11189;stroke-linecap:square;stroke-linejoin:round;paint-order:markers fill stroke"
       id="rect868-6"
       width="25.75"
       height="35"
       x="0"
       y="-1.110223e-16"
       ry="5.0414457"
       rx="0" />
    <g
       style="fill:#000000;fill-opacity:1;stroke:#000000;stroke-linecap:round;stroke-linejoin:round;stroke-opacity:1"
       id="g926"
       transform="translate(0,-0.0835)" />
  </g>
  <g
     inkscape:groupmode="layer"
     id="layer4"
     inkscape:label="Text"
     style="display:inline">
    <g
       aria-label="JB"
       transform="scale(1.0003092,0.9996909)"
       id="text1578"
       style="font-size:26.3559px;line-height:1.25;letter-spacing:-5.76534px;display:inline;stroke-width:0.274539">
      <path
         d="m 11.011476,19.084724 q 0,2.496603 -1.3126478,3.834989 -1.2997783,1.338386 -3.8221203,1.338386 -2.2006146,0 -4.0022875,-0.926575 l 0.6305855,-1.685851 q 1.5314219,0.759276 3.371702,0.759276 1.5957674,0 2.3035675,-0.836491 0.7206691,-0.84936 0.7206691,-2.638163 V 5.7523447 h 2.1105315 z"
         style="font-family:'Andale Mono';-inkscape-font-specification:'Andale Mono'"
         id="path16516" />
      <path
         d="m 19.994115,13.949956 q 1.814542,0.42468 2.844069,1.647244 1.029527,1.222564 1.029527,2.908415 0,2.470865 -1.801672,3.937942 -1.788804,1.467076 -4.311146,1.467076 H 12.594387 V 5.7523447 h 5.031815 q 2.625295,0 4.10524,1.1582182 1.479946,1.1453492 1.479946,3.2430111 0,1.286909 -0.862229,2.290698 -0.849361,1.00379 -2.355044,1.454208 z m -5.289197,-0.978051 h 2.470866 q 3.873596,0 3.873596,-2.766855 0,-1.2611706 -0.952313,-1.9303633 -0.952312,-0.6820619 -2.792592,-0.6820619 h -2.599557 z m 0,9.098448 h 2.393651 q 2.097662,0 3.320226,-0.952313 1.235433,-0.952313 1.235433,-2.612425 0,-1.763066 -1.209695,-2.728248 -1.209695,-0.965182 -3.500393,-0.965182 h -2.239222 z"
         style="font-family:'Andale Mono';-inkscape-font-specification:'Andale Mono'"
         id="path16518" />
    </g>
  </g>
</svg>
